<?xml version="1.0" encoding="UTF-8"?>
<svg width="18px" height="17px" viewBox="0 0 18 17" version="1.1" xmlns="http://www.w3.org/2000/svg" xmlns:xlink="http://www.w3.org/1999/xlink">
    <title>APP 1</title>
    <g id="页面-1" stroke="none" stroke-width="1" fill="none" fill-rule="evenodd">
        <g id="主页" transform="translate(-782.000000, -1045.000000)">
            <g id="编组-2备份-4" transform="translate(762.000000, 1023.000000)">
                <g id="APP" transform="translate(20.000000, 21.000000)">
                    <g>
                        <rect id="矩形" fill="#D8D8D8" opacity="0" x="0" y="0" width="18" height="18"></rect>
                        <path d="M3.08415994,15.9247459 L1.70765874,16.8573205 C1.52244638,16.9834005 1.39146621,16.9033651 1.41714537,16.6812467 L1.60080705,15.0854597 C1.62638282,14.863362 1.80663301,14.7723685 2.0015009,14.8836242 L3.06679243,15.4921909 C3.26139151,15.60386 3.26939299,15.7994308 3.08415994,15.9247459 Z M3.41470137,15.0253556 L2.34943052,14.4167889 C2.15464534,14.3051405 2.08602291,14.0556889 2.1993254,13.8616894 L7.13218093,5.31090754 C7.24401544,5.1165152 7.49638228,5.04836831 7.69098138,5.16100917 L8.75627291,5.76837669 C8.9510581,5.88099689 9.01819188,6.1306552 8.90635737,6.32426186 L3.9735845,14.8758501 C3.86185337,15.0698496 3.60938316,15.1362391 3.41470137,15.0253556 Z M13.2851885,12.3045659 C12.8587121,12.0918343 10.7347659,7.21292146 10.1906245,5.93994315 C9.64586284,4.6670062 8.00090916,1.27849672 8.53295534,1.0150064 C8.91158827,0.825865679 10.2704325,3.49416001 11.2890798,5.09579825 C12.3063625,6.69784999 14.4336167,10.8282013 14.6953497,11.2985928 C14.955718,11.770142 14.4447403,12.1632479 14.1605536,12.2807269 C13.8761809,12.3986607 13.7114374,12.5157675 13.2851885,12.3045659 Z M14.6808974,14.5471902 L14.0391669,13.5377229 C13.9064293,13.3280926 13.9753413,13.0688821 14.190616,12.95804 L14.8023047,12.6449489 C15.0179929,12.5352646 15.2879134,12.6238597 15.4026838,12.8436624 L15.9089682,13.8129156 C16.0241108,14.0322634 15.9456468,14.3137416 15.7379807,14.4374646 L15.3005876,14.6978535 C15.0929421,14.8235614 14.813635,14.7552285 14.6808974,14.5471902 Z M17.0427581,17.1946021 C16.9086766,16.767154 15.8849638,16.7386423 15.4266883,16.0945549 C14.9668414,15.4528038 15.3468596,15.1222003 15.5064962,14.9695521 C17.3654014,13.9272726 17.0427581,17.1946021 17.0427581,17.1946021 Z" id="形状" fill="#32C177" fill-rule="nonzero"></path>
                        <path d="M4.73362094,8.07910659 L2.85569416,11.3333485 L0.420352209,11.3333485 C0.195318588,11.3333485 0.0116569033,11.1510514 0.0116569033,10.9265967 L0.0116569033,8.48569298 C0.0116569033,8.26202395 0.195318588,8.07910659 0.420372899,8.07910659 L4.73362094,8.07910659 Z M10.1281634,8.07912726 L11.6531157,11.3333485 L7.16906624,11.3333485 L9.04686896,8.07912726 L10.1281634,8.07912726 Z M17.5904557,8.07912728 C17.8154894,8.07912728 17.999151,8.26202397 17.999151,8.48571367 L17.999151,10.9266174 C17.9993371,11.1510514 17.8156754,11.3333485 17.5906211,11.3333485 L15.4315677,11.3333485 C15.4077701,11.2080748 15.3691066,11.0823669 15.3039163,10.9648466 C15.2476993,10.8645284 15.1056163,10.5948147 14.9077091,10.2181046 C14.6219718,9.67474888 14.2114984,8.89751032 13.7721618,8.07912728 L17.5904557,8.07912728 Z" id="形状结合" fill="#26ADDE" fill-rule="nonzero"></path>
                    </g>
                </g>
            </g>
        </g>
    </g>
</svg>