<?xml version="1.0" encoding="UTF-8"?>
<svg width="18px" height="18px" viewBox="0 0 18 18" version="1.1" xmlns="http://www.w3.org/2000/svg" xmlns:xlink="http://www.w3.org/1999/xlink">
    <title>资源icon 1</title>
    <g id="页面-1" stroke="none" stroke-width="1" fill="none" fill-rule="evenodd">
        <g id="主页" transform="translate(-1208.000000, -586.000000)">
            <g id="编组-2备份-2" transform="translate(1188.000000, 565.000000)">
                <g id="资源icon" transform="translate(20.000000, 21.000000)">
                    <g>
                        <rect id="矩形" fill="#D8D8D8" opacity="0" x="0" y="0" width="18" height="18"></rect>
                        <path d="M17.0620323,12.5388831 L14.9399178,11.300983 L8.63788087,14.9343002 L2.33584395,11.300983 L0.213729486,12.5388831 C0.0837406524,12.6090437 0.00271321056,12.7448543 0.00271321056,12.8925689 C0.00271321056,13.0402834 0.0837406524,13.1760941 0.213729486,13.2462546 L8.42888475,17.940629 C8.55116123,18.019796 8.70852388,18.019796 8.83080037,17.940629 L17.0620323,13.2462546 C17.1920211,13.1760941 17.2730485,13.0402834 17.2730485,12.8925689 C17.2730485,12.7448543 17.1920211,12.6090437 17.0620323,12.5388831 L17.0620323,12.5388831 Z" id="路径" fill="#006CC2" fill-rule="nonzero"></path>
                        <path d="M17.0620323,8.66441654 L14.9399178,7.45866969 L8.63788087,11.0598336 L2.33584395,7.45866969 L0.213729486,8.66441654 C0.0837406524,8.73457708 0.00271321056,8.8703877 0.00271321056,9.01810229 C0.00271321056,9.16581687 0.0837406524,9.30162749 0.213729486,9.37178803 L8.42888475,14.0661625 C8.55116123,14.1453294 8.70852388,14.1453294 8.83080037,14.0661625 L17.0620323,9.37178803 C17.1920211,9.30162749 17.2730485,9.16581687 17.2730485,9.01810229 C17.2730485,8.8703877 17.1920211,8.73457708 17.0620323,8.66441654 L17.0620323,8.66441654 Z" id="路径" fill="#0086F1" fill-rule="nonzero"></path>
                        <path d="M0.213729486,5.49732145 L8.63788087,10.3203089 L17.0620323,5.49732145 C17.1840484,5.42492131 17.2588527,5.29355327 17.2588527,5.15167402 C17.2588527,5.00979477 17.1840484,4.87842673 17.0620323,4.8060266 L8.83080037,0.0473456602 C8.70426523,-0.0157831803 8.55541989,-0.0157831803 8.42888475,0.0473456602 L0.213729486,4.87033309 C0.118647792,4.94661537 0.0633244332,5.06192766 0.0633244332,5.18382727 C0.0633244332,5.30572688 0.118647792,5.42103917 0.213729486,5.49732145 Z" id="路径" fill="#249DFF" fill-rule="nonzero"></path>
                    </g>
                </g>
            </g>
        </g>
    </g>
</svg>