<?xml version="1.0" standalone="no"?><!DOCTYPE svg PUBLIC "-//W3C//DTD SVG 1.1//EN" "http://www.w3.org/Graphics/SVG/1.1/DTD/svg11.dtd"><svg t="1634895556452" class="icon" viewBox="0 0 1024 1024" version="1.1" xmlns="http://www.w3.org/2000/svg" p-id="1191" xmlns:xlink="http://www.w3.org/1999/xlink" width="200" height="200"><defs><style type="text/css"></style></defs><path d="M756.292 491.77h-84.568l-30.99-98.56a10.62 10.62 0 0 0-13.008-7.51l-18.14 0.22c-5.488-1.468-9.798 3.114-11.27 8.6l-45.126 216.626-61.04-301.598a10.284 10.284 0 0 0-12.6-7.272s-15.348 0.298-22.65 0.298c-7.302 0-9.56 7.236-9.56 7.236l-45.586 238.36-16.196-50.536c-1.552-5.688-6.946-6.412-13.298-6.21l-104.554 0.344a10.624 10.624 0 0 0-10.62 10.62v21.242a10.62 10.62 0 0 0 10.62 10.62h84.104l31.14 97.156c1.552 5.688 7.504 9.06 13.296 7.538l16.522-0.226c5.608 1.476 12.036-3.118 13.54-8.624L473 410.512l61.592 303.938a10.282 10.282 0 0 0 12.592 7.272s11.226-0.188 17.864-0.188c6.64 0 7.65-12.29 7.65-12.29l49.64-233.036 15.846 50.392a10.62 10.62 0 0 0 13.01 7.508l105.1 0.146a10.618 10.618 0 0 0 10.62-10.62v-21.242a10.62 10.62 0 0 0-10.62-10.622z" fill="#46b55f" p-id="1192"></path><path d="M878.522 357.154c20.75 49.056 31.272 101.154 31.272 154.846 0 53.692-10.52 105.788-31.272 154.846-20.036 47.372-48.714 89.91-85.24 126.436-36.526 36.526-79.064 65.204-126.436 85.24-49.056 20.75-101.154 31.272-154.846 31.272-53.692 0-105.79-10.52-154.846-31.272-47.372-20.036-89.91-48.714-126.436-85.24-36.524-36.526-65.204-79.064-85.24-126.436C124.726 617.79 114.204 565.692 114.204 512c0-53.692 10.52-105.788 31.272-154.846 20.036-47.372 48.716-89.91 85.24-126.436 36.526-36.524 79.064-65.204 126.436-85.24C406.21 124.726 458.308 114.204 512 114.204c53.692 0 105.788 10.52 154.846 31.272 47.372 20.036 89.91 48.716 126.436 85.24 36.526 36.526 65.204 79.064 85.24 126.436zM835.014 648.44c18.272-43.2 27.538-89.108 27.538-136.442s-9.266-93.24-27.54-136.442c-17.654-41.74-42.934-79.234-75.136-111.434-32.2-32.202-69.692-57.482-111.434-75.138-43.2-18.272-89.108-27.538-136.442-27.538s-93.24 9.266-136.442 27.54c-41.74 17.654-79.234 42.934-111.434 75.136-32.202 32.2-57.482 69.692-75.138 111.434-18.272 43.2-27.538 89.106-27.538 136.442 0 47.334 9.266 93.24 27.54 136.442 17.654 41.74 42.934 79.234 75.136 111.434 32.2 32.202 69.692 57.482 111.434 75.138 43.2 18.272 89.106 27.538 136.442 27.538 47.334 0 93.24-9.266 136.442-27.54 41.74-17.654 79.232-42.936 111.434-75.136 32.202-32.2 57.482-69.692 75.138-111.434z" fill="#46b55f" p-id="1193"></path></svg>