<?xml version="1.0" encoding="UTF-8"?>
<svg width="18px" height="16px" viewBox="0 0 18 16" version="1.1" xmlns="http://www.w3.org/2000/svg" xmlns:xlink="http://www.w3.org/1999/xlink">
    <title>网站排行icon 1</title>
    <defs>
        <path d="M1.92857143,1.59872116e-14 L16.0714286,1.59872116e-14 C17.3571429,1.59872116e-14 18,0.642857143 18,1.92857143 L18,10.9285714 C18,12.2142857 17.3571429,12.8571429 16.0714286,12.8571429 L1.92857143,12.8571429 C0.642857143,12.8571429 0,12.2142857 0,10.9285714 L0,1.92857143 C0,0.642857143 0.642857143,1.59872116e-14 1.92857143,1.59872116e-14 Z" id="path-1"></path>
    </defs>
    <g id="页面-1" stroke="none" stroke-width="1" fill="none" fill-rule="evenodd">
        <g id="主页" transform="translate(-356.000000, -1045.000000)">
            <g id="编组-2备份-5" transform="translate(336.000000, 1023.000000)">
                <g id="网站排行icon" transform="translate(20.000000, 21.000000)">
                    <g>
                        <rect id="矩形" fill="#D8D8D8" opacity="0" x="0" y="0" width="18" height="18"></rect>
                        <g id="形状" transform="translate(-0.000000, 1.000000)">
                            <mask id="mask-2" fill="white">
                                <use xlink:href="#path-1"></use>
                            </mask>
                            <use id="蒙版" fill="#FF7C06" fill-rule="nonzero" xlink:href="#path-1"></use>
                            <path d="M20,1.21288294 L20,11.7287536 C20,12.9831284 18.9619847,14 17.6815328,14 L0.772207351,14 C0.436309373,13.9997156 0.139062143,13.7869115 0.036765353,13.4734853 C-0.0655314371,13.1600591 0.0505499383,12.8177907 0.32397112,12.626653 L18.0447587,0.22564785 C18.4221215,-0.0384178877 18.9185871,-0.0734325336 19.3306709,0.134955234 C19.7427547,0.343343002 20.001168,0.760094404 20,1.2143971 L20,1.21288294 Z" fill="#FF902C" fill-rule="nonzero" mask="url(#mask-2)"></path>
                        </g>
                        <rect id="矩形" fill="#FF902C" x="5" y="15" width="8" height="2" rx="1"></rect>
                        <path d="M6.33333333,6 L11.6666667,6 C12.5555556,6 13,6.33333333 13,7 L13,7 C13,7.66666667 12.5555556,8 11.6666667,8 L6.33333333,8 C5.44444444,8 5,7.66666667 5,7 L5,7 C5,6.33333333 5.44444444,6 6.33333333,6 Z" id="路径" fill="#FEBC2E" fill-rule="nonzero"></path>
                    </g>
                </g>
            </g>
        </g>
    </g>
</svg>