<?xml version="1.0" encoding="UTF-8"?>
<svg width="17px" height="18px" viewBox="0 0 17 18" version="1.1" xmlns="http://www.w3.org/2000/svg" xmlns:xlink="http://www.w3.org/1999/xlink">
    <title>路由宣告-icon 1</title>
    <g id="页面-1" stroke="none" stroke-width="1" fill="none" fill-rule="evenodd">
        <g id="主页" transform="translate(-783.000000, -586.000000)">
            <g id="编组-2备份" transform="translate(762.000000, 565.000000)">
                <g id="路由宣告-icon" transform="translate(20.000000, 21.000000)">
                    <g transform="translate(0.000000, 0.000000)">
                        <rect id="矩形" fill="#D8D8D8" opacity="0" x="0" y="0" width="18" height="18"></rect>
                        <path d="M9.85658026,9.57128614 L9.85658026,8.07577268 C9.85658026,7.58020312 10.2583188,7.17846461 10.7538883,7.17846461 C11.2494579,7.17846461 11.6511964,7.58020312 11.6511964,8.07577268 L11.6511964,9.57128614 L16.8603689,9.57128614 C17.3559385,9.57128614 17.757677,9.97302465 17.757677,10.4685942 L17.757677,17.0488534 C17.757677,17.544423 17.3559385,17.9461615 16.8603689,17.9461615 L1.9052343,17.9461615 C1.40966473,17.9461615 1.00792622,17.544423 1.00792622,17.0488534 L1.00792622,10.4685942 C1.00792622,9.97302465 1.40966473,9.57128614 1.9052343,9.57128614 L9.85658026,9.57128614 L9.85658026,9.57128614 Z M3.69147557,14.6560319 C4.18704514,14.6560319 4.58878365,14.2542934 4.58878365,13.7587238 C4.58878365,13.2631543 4.18704514,12.8614158 3.69147557,12.8614158 C3.19590601,12.8614158 2.7941675,13.2631543 2.7941675,13.7587238 C2.7941675,14.2542934 3.19590601,14.6560319 3.69147557,14.6560319 Z M7.27951147,14.6560319 C7.77508103,14.6560319 8.17681954,14.2542934 8.17681954,13.7587238 C8.17681954,13.2631543 7.77508103,12.8614158 7.27951147,12.8614158 C6.7839419,12.8614158 6.38220339,13.2631543 6.38220339,13.7587238 C6.38220339,14.2542934 6.7839419,14.6560319 7.27951147,14.6560319 Z" id="形状" fill="#806ECF" fill-rule="nonzero"></path>
                        <path d="M17.7181954,5.43649053 C17.8058199,5.74488589 17.7222613,6.07660206 17.4989953,6.30668476 C17.2757293,6.53676745 16.9466753,6.63026164 16.6357849,6.55194897 C16.3248944,6.47363629 16.0793991,6.23541431 15.9917747,5.92701894 C15.4110408,3.51360041 13.2564557,1.80937119 10.7741678,1.80000728 C8.29187991,1.79064337 6.12449856,3.47856887 5.52557328,5.88753739 C5.48019289,6.21356058 5.25994727,6.48856587 4.95171365,6.60407575 C4.64348003,6.71958564 4.29674376,6.65705557 4.0482771,6.44115093 C3.79981043,6.22524628 3.68950344,5.89062946 3.7608674,5.56929212 L3.75727817,5.56809571 C4.50358366,2.33469668 7.36823279,0.0337992825 10.6864948,0.00252174836 C14.0047568,-0.0287557858 16.9122691,2.21773392 17.7193918,5.43649053 L17.7181954,5.43649053 L17.7181954,5.43649053 Z" id="路径" fill="#B85FEA" fill-rule="nonzero"></path>
                        <path d="M12.0807079,5.97008973 C11.7395241,5.59323607 11.2541849,5.37924348 10.7458348,5.38152615 C10.2374846,5.38380881 9.75408681,5.60215137 9.4163011,5.98205384 L9.41151545,5.98205384 C9.21147522,6.23210414 8.89323017,6.35643996 8.57666014,6.30822518 C8.26009011,6.26001041 7.99328962,6.04657001 7.87675983,5.74830493 C7.76023004,5.45003985 7.81167461,5.11226365 8.01171486,4.86221336 C8.6933227,4.05359183 9.6975142,3.58762595 10.7550847,3.58922816 C11.7729026,3.58779567 12.7431747,4.01984959 13.4230808,4.7772682 L13.4206879,4.77966102 C13.7201036,5.15253251 13.6744913,5.69470029 13.3169861,6.01230532 C12.959481,6.32991035 12.4157148,6.31134219 12.0807079,5.97008973 L12.0807079,5.97008973 Z" id="路径" fill="#9A43CB" fill-rule="nonzero"></path>
                    </g>
                </g>
            </g>
        </g>
    </g>
</svg>