<?xml version="1.0" standalone="no"?><!DOCTYPE svg PUBLIC "-//W3C//DTD SVG 1.1//EN" "http://www.w3.org/Graphics/SVG/1.1/DTD/svg11.dtd">
<svg t="1667873092456" class="icon" viewBox="0 0 1024 1024" version="1.1"
    xmlns="http://www.w3.org/2000/svg" p-id="3900"
    xmlns:xlink="http://www.w3.org/1999/xlink" width="128" height="128">
    <path d="M48 352h802.912l-67.008 60.32 0.096 0.144c-9.744 8.784-16 21.376-16 35.552a48 48 0 0 0 48 48c12.336 0 23.488-4.784 32-12.448l0.112 0.128 160-144-0.112-0.144c9.744-8.784 16-21.392 16-35.552s-6.256-26.768-16-35.552l0.112-0.128-160-144-0.112 0.128A47.744 47.744 0 0 0 816 112a48 48 0 0 0-48 48c0 14.16 6.256 26.768 16 35.552l-0.112 0.128L850.912 256H48a48 48 0 1 0 0 96z m928 320H173.088l67.024-60.32-0.112-0.112c9.76-8.8 16-21.392 16-35.568a48 48 0 0 0-48-48c-12.352 0-23.488 4.8-32 12.432l-0.112-0.128-160 144 0.112 0.128c-9.744 8.816-16 21.408-16 35.568s6.256 26.752 16 35.568l-0.112 0.112 160 144 0.112-0.112A47.728 47.728 0 0 0 208 912a48 48 0 0 0 48-48c0-14.16-6.256-26.768-16-35.568l0.112-0.128L173.088 768H976a48 48 0 1 0 0-96z" p-id="3901"></path>
</svg>