<svg t="1642477079293" class="icon" viewBox="0 0 1024 1024" version="1.1"
    xmlns="http://www.w3.org/2000/svg" p-id="1291" width="200" height="200">
    <path d="M553.66144 626.1248v195.584h128c3.072 0 6.144 1.024 8.192 3.584 3.584 3.584 4.608 9.216 2.56 13.824l-2.048 3.072-166.4 171.008-0.512 0.512c-6.144 5.632-15.36 6.656-22.528 2.048l-3.072-2.56-133.12-141.824 37.888-49.664h60.928v-79.36l90.112-116.224z m226.816-544.768c14.848-19.968 43.52-24.064 63.488-8.704s24.064 43.52 8.704 63.488l-624.64 826.368c-14.848 19.968-43.52 24.064-63.488 8.704-19.968-14.848-24.064-43.52-8.704-63.488l624.64-826.368z m55.808 256l3.072 2.048 171.008 160.768 0.512 0.512c6.144 6.144 6.656 15.36 2.048 22.528l-2.56 3.072-171.008 161.792c-2.048 2.048-5.12 3.072-8.192 3.072-5.632 0-10.24-3.584-11.776-8.704l-0.512-3.072v-120.832h-214.016l69.12-89.6h144.896v-120.832c0-3.072 1.024-6.144 3.072-8.192 4.096-3.584 9.728-4.608 14.336-2.56z m-645.632-1.024c5.632 0 10.24 3.584 11.776 8.704l0.512 3.072v121.344h217.088l-66.56 89.6h-150.528v120.832c0 3.072-1.024 6.144-3.072 8.192-3.584 4.096-9.216 4.608-13.824 2.56l-3.072-2.048-171.52-161.792-0.512-0.512c-5.632-6.144-6.656-15.36-2.048-22.528l2.56-3.072 171.008-160.768c2.56-2.56 5.12-3.584 8.192-3.584z m326.144-329.216l3.072 2.56 137.216 141.312-40.96 54.784h-62.976v84.48l-89.088 119.808v-204.8h-117.76c-3.072 0-6.144-1.024-8.192-3.072-4.096-3.584-4.608-9.216-2.56-13.824l2.048-3.072 164.864-176.128 0.512-0.512c3.584-3.584 9.216-4.096 13.824-1.536z" p-id="1292"></path>
</svg>