<svg xmlns="http://www.w3.org/2000/svg" xmlns:xlink="http://www.w3.org/1999/xlink" viewBox="0 0 310.15 202.47"><defs><style>.cls-1,.cls-2,.cls-3,.cls-4,.cls-5{fill-rule:evenodd;}.cls-1{fill:url(#GradientFill_1);}.cls-2{fill:url(#GradientFill_1-2);}.cls-3{fill:url(#GradientFill_1-3);}.cls-4{fill:#10193d;}.cls-5{fill:url(#GradientFill_1-4);}.cls-6{fill:#4c4c4c;stroke:#717071;stroke-miterlimit:10;stroke-width:2px;opacity:0.78;}.cls-7{font-size:60px;fill:#562a84;font-family:MicrosoftYaHei, Microsoft YaHei;}.cls-8{letter-spacing:0.02em;}.cls-9{letter-spacing:-0.04em;}.cls-10{letter-spacing:-0.01em;}</style><linearGradient id="GradientFill_1" x1="48.25" y1="15.87" x2="45.22" y2="58.26" gradientUnits="userSpaceOnUse"><stop offset="0" stop-color="#0a1436"/><stop offset="1" stop-color="#008ccf"/></linearGradient><linearGradient id="GradientFill_1-2" x1="61.3" y1="83.26" x2="61.29" y2="83.32" xlink:href="#GradientFill_1"/><linearGradient id="GradientFill_1-3" x1="8.1" y1="-14.9" x2="8.1" y2="210.63" xlink:href="#GradientFill_1"/><linearGradient id="GradientFill_1-4" x1="44.48" y1="92.21" x2="44.27" y2="-11.68" xlink:href="#GradientFill_1"/></defs><g id="图层_2" data-name="图层 2"><g id="_" data-name="ͼ"><path class="cls-1" d="M71.93,46.71c-1-20-10.25-39.9-27-41.73L33.62,3h0L22.17,18.65l11.59,3.17L45.39,24C58,26.35,59,63.82,49.28,68.94,56.05,75.46,70.56,68.11,71.93,46.71Z"/><path class="cls-2" d="M61.25,83.33a.3.3,0,0,0,.08-.08A.3.3,0,0,1,61.25,83.33Z"/><polygon class="cls-3" points="1.41 12.07 1.22 100.82 14.98 103.47 14.98 0.75 1.41 12.07"/><path class="cls-4" d="M80.21,85V37.1h13.1a13,13,0,0,1,7.62,2.32q3.34,2.31,3.34,7.13v29a8.39,8.39,0,0,1-3.12,7A12.11,12.11,0,0,1,93.38,85Zm13.53-8.7V45.76c0-1.68-1-2.51-3-2.51V78.81c2,0,3-.85,3-2.55Zm36.6-14h-9.51V53.84c0-1.17-.54-1.77-1.64-1.77a1.48,1.48,0,0,0-1.64,1.7V85h-9.5V46.19h9.5v1.3q1.9-1.58,5.88-1.57a7.93,7.93,0,0,1,4.87,1.51,4.79,4.79,0,0,1,2,4V62.25ZM156.07,85h-8.4v-1.5c-.71,1.36-2.75,2.05-6.1,2.05q-7.78,0-7.79-6.09V71.64a6.34,6.34,0,0,1,1.89-4.55q1.89-1.94,7.59-4.84c2.2-1.12,3.31-2,3.31-2.67V53.84c0-1.27-.55-1.9-1.64-1.9-1.26,0-1.87,1.55-1.87,4.63,0,.56,0,1.38.09,2.48s.14,1.91.14,2.47h-9.17V53.77q0-7.85,11.34-7.85,10.62,0,10.61,8.18V85Zm-9.5-7.24v-10q-3.28.81-3.28,2.94v7A1.54,1.54,0,0,0,145,79.49c1,0,1.57-.59,1.57-1.77Zm14.85,15.44V87.49h7.7q3.38,0,3.38-3.42-1.87,1.44-5.88,1.44A8.07,8.07,0,0,1,161.76,84a4.62,4.62,0,0,1-2-3.9V52.27q0-6.35,7.58-6.35a12.26,12.26,0,0,1,5.27,1.71l1.25-1.44H182V84.41a12.07,12.07,0,0,1-1.48,6.27c-1,1.65-4.08,2.48-9.24,2.48Zm11.08-15V53.71q0-1.77-1.62-1.77c-1.11,0-1.67.59-1.67,1.77V78.05c0,1.19.56,1.78,1.67,1.78s1.62-.57,1.62-1.71Zm12.88-.8V54.1q0-8.19,11.29-8.18a15.21,15.21,0,0,1,7.68,1.9,6.39,6.39,0,0,1,3.32,6V77.66q0,7.84-11,7.85-11.29,0-11.29-8.19Zm12.78.2V53.84c0-1.27-.53-1.9-1.62-1.9s-1.66.63-1.66,1.9V77.52c0,1.31.56,2,1.66,2s1.62-.66,1.62-2ZM233.33,85h-9.5V53.84c0-1.17-.55-1.77-1.64-1.77s-1.64.57-1.64,1.7V85H211V46.19h9.51v1.3q1.89-1.58,5.88-1.57a8.61,8.61,0,0,1,4.74,1.4,4.59,4.59,0,0,1,2.16,4.11V85Zm23.48,0H237.12V37.1h10.53V78.81h9.16V85Zm25.46,0h-8.4v-1.5c-.72,1.36-2.76,2.05-6.11,2.05q-7.77,0-7.78-6.09V71.64a6.34,6.34,0,0,1,1.89-4.55q1.89-1.94,7.59-4.84c2.2-1.12,3.31-2,3.31-2.67V53.84c0-1.27-.55-1.9-1.64-1.9-1.26,0-1.87,1.55-1.87,4.63,0,.56,0,1.38.09,2.48s.13,1.91.13,2.47h-9.16V53.77q0-7.85,11.34-7.85,10.62,0,10.61,8.18V85Zm-9.5-7.24v-10q-3.28.81-3.29,2.94v7a1.54,1.54,0,0,0,1.71,1.77c1.05,0,1.58-.59,1.58-1.77Zm21.14,6L293.1,85h-7.19V37.1h9.5V47.35c1.14-1,3.1-1.43,5.92-1.43A8.54,8.54,0,0,1,306,47.31a4.46,4.46,0,0,1,2.16,4V79.16a5.28,5.28,0,0,1-2.58,4.64,10.87,10.87,0,0,1-6.17,1.71,9.88,9.88,0,0,1-5.54-1.84Zm4.78-6v-24c0-1.17-.53-1.76-1.61-1.76a1.49,1.49,0,0,0-1.67,1.69V77.72c0,1.18.56,1.77,1.67,1.77S298.69,78.9,298.69,77.72Z"/><path class="cls-5" d="M16.88,103.88l37.7-15.8C67.2,82.34,72.8,64.45,71.93,46.71c-1.8,14.64-16.47,19.62-22.65,22.23L34.49,74.07Q34,38.51,33.62,3h0L16.88,0Z"/><line class="cls-6" x1="310.15" y1="117.37" y2="117.37"/><text class="cls-7" transform="translate(4.35 187.14)">BG<tspan class="cls-8" x="82.27" y="0">P</tspan><tspan class="cls-9" x="120.21" y="0">W</tspan><tspan x="178.86" y="0">a</tspan><tspan class="cls-10" x="212.02" y="0">t</tspan><tspan x="233.53" y="0">ch</tspan></text></g></g></svg>