<svg xmlns="http://www.w3.org/2000/svg"
    xmlns:xlink="http://www.w3.org/1999/xlink" viewBox="0 0 643.69 103.89">
    <defs>
        <style>.cls-1,.cls-2,.cls-3,.cls-4,.cls-5{fill-rule:evenodd;}.cls-1{fill:url(#GradientFill_1);}.cls-2{fill:url(#GradientFill_1-2);}.cls-3{fill:url(#GradientFill_1-3);}.cls-4{fill:#fff;}.cls-5{fill:url(#GradientFill_1-4);}.cls-6{fill:#fff;stroke:#fff;stroke-miterlimit:10;stroke-width:2px;opacity:0.78;}.cls-7{font-size:60px;fill:#fff;font-family:MicrosoftYaHei, Microsoft YaHei;}.cls-8{letter-spacing:0.02em;}.cls-9{letter-spacing:-0.04em;}.cls-10{letter-spacing:-0.01em;}</style>
        <linearGradient id="GradientFill_1" x1="47.03" y1="15.87" x2="44.01" y2="58.27" gradientUnits="userSpaceOnUse">
            <stop offset="0" stop-color="#fff"/>
            <stop offset="1" stop-color="#fff"/>
        </linearGradient>
        <linearGradient id="GradientFill_1-2" x1="60.08" y1="83.27" x2="60.07" y2="83.33" xlink:href="#GradientFill_1"/>
        <linearGradient id="GradientFill_1-3" x1="6.88" y1="-14.9" x2="6.88" y2="210.64" xlink:href="#GradientFill_1"/>
        <linearGradient id="GradientFill_1-4" x1="43.26" y1="92.22" x2="43.06" y2="-11.67" xlink:href="#GradientFill_1"/>
    </defs>
    <g id="图层_2" data-name="图层 2">
        <g id="_" data-name="ͼ">
            <path class="cls-1" d="M70.71,46.72C69.73,26.66,60.46,6.81,43.7,5L32.4,3h0L21,18.66l11.6,3.17L44.18,24c12.6,2.36,13.6,39.83,3.89,44.94C54.83,75.46,69.34,68.12,70.71,46.72Z"/>
            <path class="cls-2" d="M60,83.34l.08-.08Z"/>
            <polygon class="cls-3" points="0.19 12.07 0 100.83 13.76 103.47 13.76 0.76 0.19 12.07"/>
            <path class="cls-4" d="M79,85V37.1h13.1a13.09,13.09,0,0,1,7.63,2.33c2.22,1.54,3.34,3.92,3.34,7.12v29a8.38,8.38,0,0,1-3.13,7A12.12,12.12,0,0,1,92.16,85Zm13.54-8.7V45.76c0-1.67-1-2.5-3-2.5V78.81c2,0,3-.84,3-2.54Zm36.59-14h-9.5V53.84c0-1.17-.55-1.76-1.64-1.76s-1.64.57-1.64,1.7V85h-9.51V46.2h9.51v1.3q1.89-1.57,5.88-1.58a7.89,7.89,0,0,1,4.86,1.52,4.75,4.75,0,0,1,2,4V62.25ZM154.86,85h-8.4V83.46q-1.08,2.06-6.11,2.05-7.78,0-7.78-6.08V71.64a6.28,6.28,0,0,1,1.89-4.54q1.88-1.93,7.59-4.85c2.2-1.11,3.3-2,3.3-2.66V53.84c0-1.26-.55-1.9-1.64-1.9q-1.87,0-1.87,4.64c0,.56,0,1.38.09,2.47s.14,1.92.14,2.47h-9.16V53.78q0-7.85,11.34-7.86,10.6,0,10.61,8.19V85Zm-9.51-7.24v-10q-3.28.8-3.28,2.94v7a1.54,1.54,0,0,0,1.71,1.77c1.05,0,1.57-.6,1.57-1.77ZM160.2,93.17V87.5h7.71c2.24,0,3.37-1.14,3.37-3.42q-1.86,1.42-5.88,1.43A8,8,0,0,1,160.55,84a4.6,4.6,0,0,1-2.06-3.9V52.27q0-6.35,7.58-6.35a12.3,12.3,0,0,1,5.28,1.71l1.24-1.43h8.19V84.42a12.1,12.1,0,0,1-1.48,6.27c-1,1.65-4.08,2.48-9.24,2.48Zm11.08-15V53.72c0-1.19-.54-1.78-1.62-1.78s-1.66.59-1.66,1.78V78.06c0,1.18.56,1.78,1.66,1.78s1.62-.57,1.62-1.71Zm12.88-.8V54.11q0-8.19,11.29-8.19a15.12,15.12,0,0,1,7.68,1.91,6.38,6.38,0,0,1,3.32,6V77.66q0,7.84-11,7.85-11.3,0-11.29-8.18Zm12.79.19V53.84c0-1.26-.54-1.9-1.62-1.9s-1.67.64-1.67,1.9V77.52c0,1.31.56,2,1.67,2s1.62-.67,1.62-2ZM232.11,85h-9.5V53.84c0-1.17-.55-1.76-1.64-1.76a1.48,1.48,0,0,0-1.64,1.7V85h-9.5V46.2h9.5v1.3q1.89-1.57,5.88-1.58A8.54,8.54,0,0,1,230,47.33a4.56,4.56,0,0,1,2.16,4.11V85Zm23.48,0H235.9V37.1h10.53V78.81h9.16V85Zm25.46,0h-8.39V83.46q-1.08,2.06-6.11,2.05-7.79,0-7.79-6.08V71.64a6.29,6.29,0,0,1,1.9-4.54q1.88-1.93,7.59-4.85c2.2-1.11,3.3-2,3.3-2.66V53.84c0-1.26-.55-1.9-1.64-1.9q-1.87,0-1.87,4.64c0,.56,0,1.38.09,2.47s.14,1.92.14,2.47h-9.16V53.78q0-7.85,11.34-7.86,10.6,0,10.6,8.19V85Zm-9.5-7.24v-10q-3.29.8-3.28,2.94v7A1.54,1.54,0,0,0,270,79.5c1,0,1.57-.6,1.57-1.77Zm21.14,6L291.88,85h-7.19V37.1h9.51V47.36c1.14-1,3.1-1.44,5.91-1.44a8.6,8.6,0,0,1,4.72,1.39,4.49,4.49,0,0,1,2.15,4V79.17a5.27,5.27,0,0,1-2.57,4.63,10.91,10.91,0,0,1-6.18,1.71,9.89,9.89,0,0,1-5.54-1.83Zm4.79-6v-24q0-1.77-1.62-1.77a1.49,1.49,0,0,0-1.66,1.7V77.73c0,1.17.55,1.77,1.66,1.77S297.48,78.9,297.48,77.73Z"/>
            <path class="cls-5" d="M15.66,103.89l37.7-15.8C66,82.35,71.58,64.45,70.71,46.72c-1.8,14.64-16.46,19.61-22.64,22.22l-14.8,5.13Q32.77,38.52,32.4,3h0L15.66,0Z"/>
            <line class="cls-6" x1="327.74" x2="327.74" y2="103.88"/>
            <text class="cls-7" transform="translate(343.14 83.96)">BG<tspan class="cls-8" x="82.27" y="0">P</tspan>
                <tspan class="cls-9" x="120.21" y="0">W</tspan>
                <tspan x="178.86" y="0">a</tspan>
                <tspan class="cls-10" x="212.02" y="0">t</tspan>
                <tspan x="233.53" y="0">ch</tspan>
            </text>
        </g>
    </g>
</svg>