<?xml version="1.0" standalone="no"?><!DOCTYPE svg PUBLIC "-//W3C//DTD SVG 1.1//EN" "http://www.w3.org/Graphics/SVG/1.1/DTD/svg11.dtd"><svg t="1637023707942" class="icon" viewBox="0 0 1024 1024" version="1.1" xmlns="http://www.w3.org/2000/svg" p-id="4415" xmlns:xlink="http://www.w3.org/1999/xlink" width="200" height="200"><defs><style type="text/css"></style></defs><path d="M721.12 540.16 540.128 721.28C532.448 728.96 521.952 731.2 512 729.28 502.048 731.2 491.552 728.96 483.872 721.28L302.88 540.16C290.368 527.68 290.368 507.52 302.88 494.72 315.36 482.24 335.616 482.24 348.128 494.72L480 626.88 480 288C480 270.4 494.336 256 512 256 529.696 256 544 270.4 544 288L544 626.88 675.872 494.72C688.384 482.24 708.672 482.24 721.12 494.72 733.632 507.52 733.632 527.68 721.12 540.16L721.12 540.16ZM512 0C229.216 0 0 229.12 0 512 0 794.88 229.216 1024 512 1024 794.784 1024 1024 794.88 1024 512 1024 229.12 794.784 0 512 0L512 0Z" p-id="4416"></path></svg>